<svg width="101" height="94" viewBox="0 0 101 94" fill="none" xmlns="http://www.w3.org/2000/svg">
    <g filter="url(#filter0_d_3879_67439)">
        <path d="M45.8441 0.0117809L45.8424 4.36479L25.4302 16.6032L25.4273 23.9743L23.4973 22.7547L23.501 13.4682L45.8441 0.0117809Z"
              fill="#004596"/>
        <path d="M78.5448 15.6952L78.534 42.8579L72.5236 39.199L72.5308 20.8584L70.2689 22.2504L70.2711 16.7947L56.1548 8.25717L56.1572 2.04688L78.5448 15.6952Z"
              fill="#004596"/>
        <path d="M28.6283 18.5191L25.4281 21.884L25.4302 16.6025L28.6283 18.5191Z" fill="#E86B00"/>
        <path d="M34.9694 22.411L30.5552 27.0524L25.427 23.9743L25.4279 21.8849L28.6282 18.5198L34.9694 22.411Z"
              fill="#DB4893"/>
        <path d="M41.3658 26.3021L36.9516 30.9435L30.5553 27.0523L34.9695 22.4109L41.3658 26.3021Z" fill="#12A8DF"/>
        <path d="M39.4305 38.9543L39.4331 32.512L38.22 31.757L36.9518 30.9439L41.366 26.3025L47.7623 30.1937L39.4305 38.9543Z"
              fill="#004596"/>
        <path d="M47.869 40.6979L39.4269 49.5165L39.4311 38.9534L47.7629 30.1928L47.8732 30.2508L47.869 40.6979Z"
              fill="#E86B00"/>
        <path d="M47.9197 51.2618L44.2229 55.0909L39.4808 52.187L39.4819 49.4592L47.8688 40.6986L47.9197 51.2618Z"
              fill="#DB4893"/>
        <path d="M70.271 17.1432L70.2689 22.2506L58.9045 29.0367L70.271 17.1432Z" fill="#DB4893"/>
        <path d="M47.8066 57.4138L44.1674 55.2069L47.8091 51.3198L47.8066 57.4138Z" fill="#4CA4D9"/>
        <path d="M39.4334 32.511L39.4226 59.6738L17.0351 45.9674L17.0459 18.8047L23.4975 22.754L25.4274 23.9736L30.5556 27.0517L36.9521 30.943L38.2203 31.756L39.4334 32.511Z"
              fill="#00A7E2"/>
        <path d="M70.2714 16.795L70.2712 17.1432L58.9046 29.037L58.9046 29.095L57.415 29.965L50.1328 34.3151L50.1313 38.2619L47.8689 40.6987L47.8731 30.2514L56.1483 25.2633L70.2714 16.795Z"
              fill="#7B4A2A"/>
        <path d="M50.1267 48.8828L47.8645 51.2615L47.8687 40.6984L50.1309 38.2616L50.1267 48.8828Z" fill="#774159"/>
        <path d="M70.271 17.1432L70.2689 22.2506L58.9045 29.0367L70.271 17.1432Z" fill="#774159"/>
        <path d="M50.1271 48.8827L50.1242 56.0796L47.8623 57.4717L47.8648 51.2615L50.1271 48.8827Z" fill="#405C6C"/>
        <path d="M72.5306 20.8585L72.5198 48.0793L50.1216 61.5357L50.1266 48.883L50.1308 38.2616L50.1324 34.3149L57.4145 29.9648L58.9041 29.0948L58.9041 29.0367L70.2687 22.2505L72.5306 20.8585Z"
              fill="#00A7E2"/>
        <path d="M45.8423 4.30627L47.8283 3.14629L45.8423 4.30627Z" fill="white"/>
        <path d="M28.6284 18.5195L37.1258 9.58467L25.4302 16.6029L45.8424 4.36453L37.1258 9.58467L28.6284 18.5195Z"
              fill="#6775B2"/>
        <path d="M28.6285 18.5194L25.4303 16.6028L37.1258 9.58471L28.6285 18.5194Z" fill="#EF9659"/>
        <path d="M34.9695 22.4105L28.6282 18.5193L37.1256 9.58449L45.8422 4.30629L47.8282 3.14628L51.3022 5.29514L34.9695 22.4105Z"
              fill="#E68AB8"/>
        <path d="M41.3662 26.3021L34.9698 22.4109L51.3025 5.29553L57.6989 9.18676L41.3662 26.3021Z" fill="#7FC2E9"/>
        <path d="M47.7627 30.1927L41.3663 26.3015L57.6989 9.18616L64.0403 13.0193L47.7627 30.1927Z" fill="#6775B2"/>
        <path d="M47.873 30.2516L47.7627 30.1936L64.0403 13.0201L70.2713 16.8532L47.873 30.2516Z" fill="#EF9659"/>
    </g>
    <path d="M6.28012 93.9997C2.08168 93.9997 0 91.0573 0 87.3871V76.8069C0 73.1368 2.08352 70.1943 6.28012 70.1943H7.93328C12.1317 70.1943 14.2466 73.1368 14.2466 76.8069V87.3871C14.2466 91.0573 12.1317 93.9997 7.93328 93.9997H6.28012ZM11.0733 76.8069C11.0733 74.8232 10.1479 73.2365 7.93328 73.2365H6.28012C4.0987 73.2365 3.17331 74.8232 3.17331 76.8069V87.3871C3.17331 89.3376 4.0987 90.9575 6.28012 90.9575H7.93328C10.1479 90.9575 11.0733 89.3376 11.0733 87.3871V76.8069Z"
          fill="#004596"/>
    <path d="M28.8279 93.9997C24.6276 93.9997 22.5459 91.0573 22.5459 87.3871V76.8069C22.5459 73.1368 24.6294 70.1943 28.8279 70.1943H31.3732C34.7127 70.1943 36.7944 71.6166 36.7944 75.054C36.7944 75.9462 36.3326 76.6407 35.2077 76.6407C34.0515 76.6407 33.6211 75.9462 33.6211 75.054C33.6211 73.7962 32.7271 73.2365 31.3732 73.2365H28.8279C26.6465 73.2365 25.7192 74.8232 25.7192 76.8069V87.3871C25.7192 89.3376 26.6446 90.9575 28.8279 90.9575H31.3732C32.7289 90.9575 33.6211 90.396 33.6211 89.1067C33.6211 88.2127 34.0496 87.5182 35.2077 87.5182C36.3326 87.5182 36.7944 88.2146 36.7944 89.1067C36.7944 92.5442 34.7127 93.9997 31.3732 93.9997H28.8279Z"
          fill="#004596"/>
    <path d="M46.2492 93.6668C45.093 93.6668 44.6626 92.9723 44.6626 92.0783V72.113C44.6626 71.2209 45.093 70.5264 46.2492 70.5264H55.8357C56.6946 70.5264 57.3558 70.9549 57.3558 72.0465C57.3558 73.1363 56.6946 73.5685 55.8357 73.5685H47.8359V80.2125H54.249C55.1079 80.2125 55.7692 80.6762 55.7692 81.7327C55.7692 82.8243 55.1079 83.2529 54.249 83.2529H47.8359V90.6265H55.8357C56.6946 90.6265 57.3558 91.0568 57.3558 92.1466C57.3558 93.2382 56.6946 93.6686 55.8357 93.6686H46.2492V93.6668Z"
          fill="#004596"/>
    <path d="M75.0457 87.2209H67.9048L66.0873 92.8397C65.8231 93.634 65.1933 94.1955 64.2014 93.8981C63.1763 93.5675 62.9454 92.74 63.2095 91.9143L69.8221 71.3506C70.0881 70.5582 70.4834 70.1943 71.4106 70.1943H71.575C72.469 70.1943 72.8975 70.5582 73.1635 71.3506L79.7761 91.9143C80.0402 92.7067 79.7429 93.5656 78.7842 93.8981C77.8256 94.1955 77.1625 93.634 76.8983 92.8397L75.0457 87.2209ZM71.9703 77.6326C71.7394 76.9067 71.6396 76.5428 71.4753 75.7486H71.442C71.2758 76.5428 71.176 76.9048 70.9451 77.6326L68.8616 84.1454H74.1184L71.9703 77.6326Z"
          fill="#004596"/>
    <path d="M89.7225 77.8322H89.6892C89.7557 78.4269 89.8222 79.2212 89.8222 80.1133V92.4113C89.8222 93.2702 89.3586 93.9998 88.2337 93.9998C87.0774 93.9998 86.6489 93.2721 86.6489 92.4113V71.7829C86.6489 70.8889 87.0774 70.1963 88.2337 70.1963C88.895 70.1963 89.3586 70.3939 89.8555 71.3544L97.4932 86.3621H97.5265C97.4618 85.7655 97.3935 84.9749 97.3935 84.0809V71.7829C97.3935 70.8889 97.8239 70.1963 98.9801 70.1963C100.105 70.1963 100.567 70.8908 100.567 71.7829V92.4113C100.567 93.2702 100.105 93.9998 98.9801 93.9998C98.3189 93.9998 97.8238 93.7671 97.3602 92.8417L89.7225 77.8322Z"
          fill="#004596"/>
    <defs>
        <filter id="filter0_d_3879_67439" x="15.8841" y="0.0117188" width="64.5792" height="66.1285"
                filterUnits="userSpaceOnUse" color-interpolation-filters="sRGB">
            <feFlood flood-opacity="0" result="BackgroundImageFix"/>
            <feColorMatrix in="SourceAlpha" type="matrix" values="0 0 0 0 0 0 0 0 0 0 0 0 0 0 0 0 0 0 127 0"
                           result="hardAlpha"/>
            <feOffset dx="0.383673" dy="3.06939"/>
            <feGaussianBlur stdDeviation="0.767346"/>
            <feColorMatrix type="matrix" values="0 0 0 0 0 0 0 0 0 0 0 0 0 0 0 0 0 0 0.12 0"/>
            <feBlend mode="normal" in2="BackgroundImageFix" result="effect1_dropShadow_3879_67439"/>
            <feBlend mode="normal" in="SourceGraphic" in2="effect1_dropShadow_3879_67439" result="shape"/>
        </filter>
    </defs>
</svg>
